# xmcd
#
# Track frame offsets:
#	150
#	14231
#	30486
#	43587
#	56922
#	70100
#	87996
#	105975
#	122665
#	139978
#
# Disc length: 2046 seconds
#
# Revision: 0
# Processed by: cddbd v1.5.2PL0 Copyright (c) Steve Scherf et al.
# Submitted via: audiograbber 1.83.01
#
DISCID=8907fc0a
DTITLE=Kimmie C - Being Me Kimmie C
DYEAR=1900
DGENRE=
TTITLE0=Heart Of Stone
TTITLE1=Tears On The Horizon
TTITLE2=It Took A Lot More Than That
TTITLE3=At Last
TTITLE4=Shadow In The Dark
TTITLE5=Without Wings
TTITLE6=Eternal Flame
TTITLE7=Seeing Things My Way
TTITLE8=Jukebox Hero
TTITLE9=That Enough Of That
EXTD=
EXTT0=
EXTT1=
EXTT2=
EXTT3=
EXTT4=
EXTT5=
EXTT6=
EXTT7=
EXTT8=
EXTT9=
PLAYORDER=
